<?xml version="1.0" encoding="UTF-8" standalone="no"?>
<!DOCTYPE svg PUBLIC "-//W3C//DTD SVG 1.1//EN" "http://www.w3.org/Graphics/SVG/1.1/DTD/svg11.dtd">
<svg width="100%" height="100%" viewBox="0 0 2090 651" version="1.1" xmlns="http://www.w3.org/2000/svg" xmlns:xlink="http://www.w3.org/1999/xlink" xml:space="preserve" xmlns:serif="http://www.serif.com/" style="fill-rule:evenodd;clip-rule:evenodd;stroke-linejoin:round;stroke-miterlimit:2;">
    <g transform="matrix(1,0,0,1,-199.294288,-2723.239356)">
        <g transform="matrix(1,0,0,1,-84,2349)">
            <g>
                <path d="M997.806,980.861C993.335,999.458 977.262,1014.845 942.401,1024.252C919.616,1017.87 903.544,1010.035 882.539,999.354C777.125,945.752 668.754,897.771 557.826,856.763C544.915,851.823 531.871,847.226 518.714,842.983C487.171,884.896 397.76,1008.576 347.626,1015.289C331.548,1017.445 314.472,1013.896 301.58,1003.763C291.797,996.077 285.097,984.2 283.885,971.775C279.81,929.943 297.95,826.701 303.704,779.274C309.046,735.248 311.532,689.763 319.759,646.261C321.733,635.814 323.782,624.55 330.825,616.255C341.065,604.203 356.207,597.742 371.837,597.036C385.137,596.433 400.739,600.277 410.638,609.571C423.112,621.272 425.951,640.997 425.666,657.25C424.985,696.015 415.41,776.707 406.068,814.48C499.693,691.396 571.376,556.805 642.472,420.162C651.341,403.111 686.557,393.452 703.769,399.166C751.922,415.157 774.966,519.093 795.187,565.972C835.745,658.466 881.531,748.577 932.319,835.868C939.759,848.601 949.443,862.783 959.12,877.546C960.298,917.516 967.232,949.536 987.386,971.31C990.521,974.697 993.981,977.889 997.806,980.861ZM989.158,929.694C990.585,932.898 991.892,936.082 993.057,939.238C991.585,936.198 990.292,933.015 989.158,929.694ZM621.146,767.861C685.694,792.872 749.588,819.547 812.762,847.861C793.605,809.816 771.913,772.191 752.616,733.682C726.907,682.385 704.606,632.161 681.283,579.797C660.874,625.383 609.263,709.04 581.8,753.225C594.903,757.796 608.491,762.25 621.146,767.861ZM392.725,374.338C439.116,372.102 478.598,407.994 480.837,454.44C483.076,500.885 447.23,540.409 400.839,542.645C354.448,544.881 314.967,508.989 312.728,462.544C310.489,416.098 346.334,376.575 392.725,374.338Z"/>
                <g transform="matrix(1,0,0,1,84,-2349)">
                    <path d="M1181.738,3024.831C1264.401,3024.52 1347.061,3024.694 1429.722,3025.354L1429.438,3089.285C1382.267,3143.544 1335.491,3201.354 1288.248,3256.328L1431.436,3256.589C1431.711,3279.953 1431.639,3303.316 1431.222,3326.677L1181.849,3326.666C1181.849,3326.611 1181.849,3326.556 1181.849,3326.501L1181.823,3254.346C1226.021,3202.654 1269.801,3150.604 1313.152,3098.201C1272.314,3096.257 1223.804,3097.161 1181.765,3097.103L1181.739,3024.998C1181.739,3024.942 1181.739,3024.887 1181.738,3024.831Z"/>
                </g>
                <g transform="matrix(1,0,0,1,84,-2349)">
                    <path d="M1042.608,3327.303C1027.626,3329.504 1015.596,3330.818 998.374,3331.51C900.795,3328.368 895.58,3274.149 898.201,3192.606C899.168,3162.553 898.314,3128.97 898.38,3098.644L855.267,3098.401L855.389,3025.284L898.91,3024.774L898.719,2945.426C925.254,2945.194 951.777,2944.273 978.265,2942.666L986.373,2942.344C992.258,2951.177 989.785,3010.368 989.735,3024.511C1007.093,3025.108 1025.185,3025.145 1042.848,3025.269L1042.787,3098.204L989.657,3098.288C989.562,3125.199 983.298,3226.675 997.768,3248.038C1002.69,3255.302 1026.084,3255.057 1042.656,3254.308L1042.596,3326.548C1042.596,3326.8 1042.6,3327.052 1042.608,3327.303Z"/>
                </g>
                <g transform="matrix(1,0,0,1,84,-2349)">
                    <path d="M1065.765,3024.592L1158.822,3025.006L1158.933,3326.509L1065.513,3326.567L1065.765,3024.592Z"/>
                </g>
                <g transform="matrix(1,0,0,1,84,-2349)">
                    <path d="M1099.052,2891.843C1127.465,2884.524 1156.5,2901.747 1163.851,2930.281C1171.201,2958.814 1154.102,2987.923 1125.689,2995.242C1097.276,3002.562 1068.24,2985.339 1060.89,2956.805C1053.539,2928.271 1070.639,2899.163 1099.052,2891.843Z"/>
                </g>
                <g transform="matrix(11.467369,0,0,11.467369,-719.348636,411.305282)">
                    <path d="M226.55,41.115C226.166,40.074 225.912,38.976 225.805,37.847C225.036,29.743 230.035,22.979 238.322,22.23C242.684,21.836 245.224,23.11 248.484,25.904C248.505,24.997 248.498,24.054 248.503,23.144L256.481,23.16C256.507,27.535 256.618,32.245 256.5,36.594L256.553,36.912C257.137,36.634 259.736,33.625 260.303,32.99L260.253,31.997L260.205,23.177L268.757,23.189C268.75,27.44 268.901,33.297 268.721,37.435C268.752,41.262 268.759,45.089 268.743,48.916L260.26,48.922C260.255,46.777 260.195,44.353 260.308,42.232C258.996,43.17 257.733,44.303 256.505,45.357L256.539,47.173L256.51,48.915L248.57,48.927L248.433,46.102C244.611,49.72 239.713,51.026 234.718,48.897C232.908,48.367 231.287,47.424 229.938,46.186C230.149,45.357 230.09,44.476 229.761,43.674C229.425,42.849 228.928,42.248 228.322,41.828C227.8,41.466 227.198,41.238 226.55,41.115ZM228.246,44.289C228.036,44.002 227.838,43.705 227.653,43.4C227.894,43.63 228.096,43.922 228.246,44.289ZM247.624,37.933C248.525,34.784 247.018,31.444 244.063,30.033C241.106,28.622 237.565,29.554 235.684,32.236C233.928,34.74 234.089,38.115 236.073,40.442C238.058,42.769 241.363,43.459 244.111,42.12C245.824,41.286 247.1,39.764 247.624,37.933ZM263.866,10.721C266.637,10.331 269.203,12.268 269.594,15.044C269.984,17.82 268.052,20.39 265.281,20.78C262.51,21.169 259.944,19.232 259.553,16.456C259.163,13.681 261.095,11.111 263.866,10.721Z"/>
                </g>
                <g transform="matrix(1,0,0,1,84,-2349)">
                    <path d="M1751.791,3314.886C1751.785,3318.721 1751.781,3322.552 1751.779,3326.379L1660.789,3326.431C1660.82,3319.096 1661.825,3299.723 1658.877,3294.403L1655.385,3296.72C1635.725,3316.394 1615.567,3328.516 1587.579,3332.278C1441.788,3351.874 1375.821,3174.527 1456.768,3069.472C1482.657,3035.874 1517.291,3022.895 1558.195,3018.54C1596.515,3013.924 1634.5,3031.62 1659.65,3059.898L1660.259,3024.456C1690.52,3024.441 1720.779,3024.609 1751.034,3024.963C1752.449,3096.361 1752.25,3169.269 1752.001,3241.616C1736.966,3253.653 1731.36,3271.422 1734.412,3287.307C1736.413,3297.725 1742.174,3307.71 1751.791,3314.886ZM1587.973,3256.386C1668.092,3245.169 1682.352,3149.457 1629.479,3111.644C1617.83,3103.313 1602.921,3097.793 1584.741,3096.606C1482.564,3112.99 1494.316,3250.282 1587.973,3256.386Z"/>
                </g>
                <g transform="matrix(1.704315,-1.501013,1.501013,1.704315,-536.919388,1438.074665)">
                    <path d="M948.839,520.119C954.186,524.475 958.099,530.041 955.606,537.172L955.599,537.192C954.538,540.277 952.264,542.794 949.304,544.161C944.793,546.184 941.509,545.167 937.26,543.671C929.164,537.369 927.719,529.818 930.85,524.5C933.917,519.293 941,516.795 948.838,520.119L948.839,520.119Z"/>
                </g>
            </g>
        </g>
    </g>
</svg>
